<svg xmlns="http://www.w3.org/2000/svg" width="343" height="123" viewBox="0 0 343 123"><defs><style>.a{fill:#fff;}.b{fill:#34ffc8;}</style></defs><g transform="translate(219.585)"><path class="a" d="M244.616,241a3.6,3.6,0,1,0,3.616,3.6A3.614,3.614,0,0,0,244.616,241Zm0,0" transform="translate(-182.908 -183.104)"/><path class="a" d="M157.527,167.5A7.22,7.22,0,0,0,167.755,157.3l-12.4-12.355a21.571,21.571,0,0,1,0-30.577l12.4-12.355a7.22,7.22,0,0,0-10.227-10.193l-12.4,12.358a21.747,21.747,0,0,1-30.68,0l-12.4-12.358a7.22,7.22,0,0,0-10.227,10.193l12.4,12.355a21.571,21.571,0,0,1,0,30.577L91.826,157.3A7.22,7.22,0,0,0,102.053,167.5l12.4-12.358a21.747,21.747,0,0,1,30.68,0ZM129.79,140.47a10.811,10.811,0,1,1,10.847-10.811A10.842,10.842,0,0,1,129.79,140.47Zm0,0" transform="translate(-68.083 -68.159)"/><path class="b" d="M313.535,18.568A14.439,14.439,0,0,1,333.99,38.952L322.843,50.06A25.35,25.35,0,0,0,352.62,25.225a25.31,25.31,0,1,0-50.228,4.454Zm0,0" transform="translate(-229.205 0)"/><path class="a" d="M327.31,302a25.494,25.494,0,0,0-4.469.389L333.989,313.5a14.438,14.438,0,0,1-20.45,20.388l-11.148-11.111A25.32,25.32,0,1,0,327.31,302Zm0,0" transform="translate(-229.205 -229.449)"/><path class="a" d="M25.31,50.449a25.491,25.491,0,0,0,4.469-.389L18.63,38.954A14.438,14.438,0,0,1,39.08,18.566L50.228,29.676A25.32,25.32,0,1,0,25.31,50.449Zm0,0" transform="translate(0 0)"/><path class="b" d="M39.084,333.882A14.438,14.438,0,0,1,18.628,313.5l11.15-11.111a25.176,25.176,0,1,0,20.45,20.381Zm0,0" transform="translate(0.001 -229.449)"/></g><path class="b" d="M39.073-29.585a6.223,6.223,0,0,1,5.173,2.1q1.677,2.1.892,5.582L42.569-9.674a9.729,9.729,0,0,1-3.353,5.582,9.192,9.192,0,0,1-5.993,2.1H5.539A6.119,6.119,0,0,1,.4-4.092,6.555,6.555,0,0,1-.526-9.674L.83-16.287H17.24L15.528-8.11H25.8l3.282-15.36H10.105a6.223,6.223,0,0,1-5.173-2.1q-1.677-2.1-.892-5.582L6.609-43.38a9.729,9.729,0,0,1,3.353-5.582,9.192,9.192,0,0,1,5.993-2.1H43.639a6.257,6.257,0,0,1,5.173,2.074q1.677,2.074.892,5.535l-1.356,6.613H31.938l1.712-8.107H23.376l-3.282,15.36ZM96.3-24.963a9.729,9.729,0,0,1-3.353,5.582,9.192,9.192,0,0,1-5.993,2.1l-18.908-.071L64.759-1.994H48.348L58.766-51.06H94.155a6.223,6.223,0,0,1,5.173,2.1q1.677,2.1.892,5.582Zm-22.4-19.982L69.325-23.469H79.6l4.566-21.475Zm68.068,42.95h-16.41l3.282-15.36H118.557l-3.282,15.36H98.864L107.64-43.38a9.729,9.729,0,0,1,3.353-5.582,9.192,9.192,0,0,1,5.993-2.1H144.67a6.223,6.223,0,0,1,5.173,2.1q1.677,2.1.892,5.582Zm-17.552-42.95-4.566,21.475h10.274l4.566-21.475Zm32.678,42.95a6.223,6.223,0,0,1-5.173-2.1q-1.677-2.1-.892-5.582l7.135-33.706a9.729,9.729,0,0,1,3.353-5.582,9.192,9.192,0,0,1,5.993-2.1h27.184L193.4-44.945h-18.48L166.646-8.11h18.908L184.27-1.994Zm41.24,0a6.223,6.223,0,0,1-5.173-2.1q-1.677-2.1-.892-5.582L199.4-43.38a9.729,9.729,0,0,1,3.353-5.582,9.192,9.192,0,0,1,5.993-2.1h27.184l-1.284,6.115h-18.48l-3.282,15.36h14.341l-1.284,6.115H211.6L208.314-8.11h18.48L225.51-1.994Z" transform="translate(0.742 89.44)"/><path class="a" d="M23.84-1.455H-1.62l7.6-35.8H17.957L11.292-5.918H24.777Zm36.186,0H48.051l2.4-11.208h-7.5l-2.4,11.208H28.578l6.4-30.2a7.1,7.1,0,0,1,2.447-4.073A6.707,6.707,0,0,1,41.8-37.26H62a4.541,4.541,0,0,1,3.775,1.531,4.613,4.613,0,0,1,.651,4.073ZM47.218-32.8,43.886-17.126h7.5L54.715-32.8Zm50.4,31.342H85.643L82.206-23.924,77.416-1.455H65.441l7.6-35.8H85.018l3.436,22.521,4.79-22.521h11.975Zm38.06-5.6a7.1,7.1,0,0,1-2.447,4.073,6.707,6.707,0,0,1-4.374,1.531H103.033l7.6-35.8h25.825a4.541,4.541,0,0,1,3.775,1.531,4.613,4.613,0,0,1,.651,4.073ZM121.672-32.8l-5.727,26.88h7.5L129.17-32.8Z" transform="translate(25.842 120.612)"/></svg>